<svg width="555" height="93" viewBox="0 0 555 93" fill="none" xmlns="http://www.w3.org/2000/svg">
<rect width="555" height="93" rx="22" fill="#0B63E6" fill-opacity="0.53"/>
<path d="M526.2 18.9278H482.183C473.544 18.9278 466.545 25.8507 466.545 34.3922V56.1533C466.545 64.6947 473.548 71.6215 482.183 71.6215H526.2C534.839 71.6215 541.838 64.6947 541.838 56.1533V34.3922C541.838 25.8507 534.836 18.924 526.2 18.924V18.9278ZM515.625 46.3291L495.037 56.0439C494.911 56.1043 494.773 56.132 494.633 56.1244C494.494 56.1168 494.359 56.0741 494.241 56.0003C494.123 55.9265 494.025 55.824 493.957 55.7023C493.889 55.5807 493.853 55.4438 493.852 55.3044V35.275C493.855 35.1349 493.893 34.9978 493.963 34.8763C494.032 34.7549 494.132 34.653 494.252 34.5804C494.371 34.5077 494.508 34.4665 494.648 34.4606C494.788 34.4548 494.927 34.4844 495.052 34.5469L515.644 44.8653C515.781 44.9337 515.896 45.0394 515.976 45.1702C516.056 45.301 516.097 45.4517 516.095 45.605C516.093 45.7582 516.048 45.9078 515.965 46.0366C515.881 46.1653 515.764 46.2642 515.625 46.3291Z" fill="white"/>
<path d="M366.336 21H374.515L356.648 41.3333L377.667 69H361.208L348.32 52.2187L333.571 69H325.384L344.496 47.2533L324.333 21H341.208L352.861 36.3387L366.336 21ZM363.467 64.1253H368L338.744 25.6187H333.88L363.467 64.1253Z" fill="white"/>
<path d="M212.182 36.4823C207.315 36.4823 203.392 40.4436 203.392 45.2727C203.392 50.1018 207.353 54.0632 212.182 54.0632C217.011 54.0632 220.972 50.1018 220.972 45.2727C220.972 40.4436 217.011 36.4823 212.182 36.4823ZM238.591 45.2727C238.591 41.6132 238.591 38.0291 238.402 34.3696C238.214 30.1441 237.233 26.3714 234.139 23.3155C231.046 20.2218 227.311 19.2409 223.085 19.0523C219.426 18.8636 215.842 18.8636 212.182 18.8636C208.522 18.8636 204.938 18.8636 201.279 19.0523C197.053 19.2409 193.281 20.2218 190.225 23.3155C187.131 26.4091 186.15 30.1441 185.962 34.3696C185.773 38.0291 185.773 41.6132 185.773 45.2727C185.773 48.9323 185.773 52.5164 185.962 56.1759C186.15 60.4014 187.131 64.1741 190.225 67.23C193.318 70.3236 197.053 71.3046 201.279 71.4932C204.938 71.6818 208.522 71.6818 212.182 71.6818C215.842 71.6818 219.426 71.6818 223.085 71.4932C227.311 71.3046 231.083 70.3236 234.139 67.23C237.233 64.1364 238.214 60.4014 238.402 56.1759C238.629 52.5541 238.591 48.9323 238.591 45.2727ZM212.182 58.8168C204.674 58.8168 198.638 52.7805 198.638 45.2727C198.638 37.765 204.674 31.7286 212.182 31.7286C219.69 31.7286 225.726 37.765 225.726 45.2727C225.726 52.7805 219.69 58.8168 212.182 58.8168ZM226.292 34.3318C224.557 34.3318 223.123 32.9359 223.123 31.1627C223.123 29.3896 224.519 27.9936 226.292 27.9936C228.065 27.9936 229.461 29.3896 229.461 31.1627C229.471 31.576 229.395 31.9868 229.239 32.3697C229.084 32.7526 228.851 33.0994 228.556 33.3886C228.266 33.6839 227.92 33.9167 227.537 34.0724C227.154 34.2282 226.743 34.3036 226.33 34.2941L226.292 34.3318Z" fill="white"/>
<g clip-path="url(#clip0_89_68)">
<mask id="mask0_89_68" style="mask-type:luminance" maskUnits="userSpaceOnUse" x="24" y="19" width="56" height="56">
<path d="M24 19H80V75H24V19Z" fill="white"/>
</mask>
<g mask="url(#mask0_89_68)">
<path d="M52 19C36.537 19 24 31.537 24 47C24 61.0373 34.3413 72.6293 47.8163 74.6547V54.42H40.8863V47.0583H47.8163V42.163C47.8163 34.0547 51.7667 30.4963 58.503 30.4963C61.7323 30.4963 63.438 30.7343 64.2477 30.844V37.2677H59.651C56.7903 37.2677 55.7893 39.9813 55.7893 43.038V47.0607H64.1753L63.0367 54.4223H55.7893V74.713C69.4557 72.8603 80 61.175 80 47C80 31.537 67.463 19 52 19Z" fill="white"/>
</g>
</g>
<defs>
<clipPath id="clip0_89_68">
<rect width="56" height="56" fill="white" transform="translate(24 19)"/>
</clipPath>
</defs>
</svg>
